<svg height='100px' width='100px'  fill="#000000" xmlns="http://www.w3.org/2000/svg" xmlns:xlink="http://www.w3.org/1999/xlink" version="1.1" x="0px" y="0px" viewBox="0 0 100 100" style="enable-background:new 0 0 100 100;" xml:space="preserve"><style type="text/css">
	.st0{fill:none;}
</style><rect class="st0" width="100" height="100"></rect><path d="M50,69.8c-2.7,0-5.4-1-7.5-3.1L15.6,39.7c-0.8-0.8-0.8-2.1,0-2.8c0.8-0.8,2.1-0.8,2.8,0l26.9,26.9c2.6,2.6,6.7,2.6,9.3,0  l26.9-26.9c0.8-0.8,2.1-0.8,2.8,0c0.8,0.8,0.8,2.1,0,2.8L57.5,66.7C55.4,68.7,52.7,69.8,50,69.8z"></path><g><path d="M38.4,31.4l9.3,30.1L35.5,32.4c-0.3-0.8,0-1.7,0.8-2.1c0.8-0.3,1.7,0,2.1,0.8C38.4,31.3,38.4,31.3,38.4,31.4z"></path></g><g><path d="M32.3,33.9L46.7,62L29.6,35.5c-0.5-0.7-0.3-1.7,0.5-2.2c0.7-0.5,1.7-0.3,2.2,0.5C32.3,33.8,32.3,33.9,32.3,33.9z"></path></g><g><path d="M26.7,37.5l19,25.2L24.3,39.5c-0.6-0.6-0.6-1.6,0.1-2.2c0.6-0.6,1.6-0.6,2.2,0.1C26.6,37.4,26.7,37.5,26.7,37.5z"></path></g><g><path d="M75.7,39.5L54.3,62.7l19-25.2c0.5-0.7,1.5-0.8,2.2-0.3c0.7,0.5,0.8,1.5,0.3,2.2C75.8,39.5,75.8,39.5,75.7,39.5z"></path></g><g><path d="M70.4,35.5L53.3,62l14.4-28.1c0.4-0.8,1.4-1.1,2.1-0.7c0.8,0.4,1.1,1.4,0.7,2.1C70.5,35.4,70.5,35.5,70.4,35.5z"></path></g><g><path d="M64.5,32.4L52.3,61.5l9.3-30.1c0.3-0.8,1.1-1.3,2-1c0.8,0.3,1.3,1.1,1,2C64.6,32.3,64.5,32.4,64.5,32.4z"></path></g></svg>